<svg width="85" height="85" viewBox="0 0 85 85" fill="none" xmlns="http://www.w3.org/2000/svg">
<g clip-path="url(#clip0_201_9878)">
<rect width="85" height="85" rx="12" fill="white"/>
<path d="M74.7437 41.5329C81.7283 41.5329 85.8866 45.6939 85.8866 52.0663V81.8959C85.8866 84.2069 85.6795 86.0782 85.6795 86.0782H53.7832V57.0866H52.483L46.5622 65.9199C45.598 67.2348 43.6403 67.8723 42.0811 67.8723H28.1823C27.6333 67.8728 27.0897 67.7651 26.5824 67.5555C26.0751 67.3458 25.6141 67.0383 25.2257 66.6504C24.8373 66.2625 24.5291 65.8018 24.3188 65.2948C24.1085 64.7877 24.0002 64.2442 24 63.6953C24 61.3923 25.8713 59.5741 28.1823 59.5741H40.8234L49.5916 46.3115C51.6967 43.1041 55.5921 41.5741 59.1116 41.5741C59.1116 50.9015 61.4359 54.8487 65.638 54.8487V70.3559C65.0408 70.6119 64.5318 71.0375 64.1742 71.58C63.8165 72.1226 63.6259 72.7581 63.6259 73.4079C63.624 73.8416 63.708 74.2714 63.873 74.6726C64.038 75.0737 64.2808 75.4382 64.5874 75.745C64.8939 76.0518 65.2582 76.2949 65.6592 76.4602C66.0602 76.6256 66.4899 76.7099 66.9237 76.7083C68.7578 76.7083 70.2267 75.2009 70.2267 73.3627C70.2267 71.9948 69.3966 70.8207 68.2146 70.3147V54.8022C72.4141 54.8009 74.741 50.859 74.741 41.5329H74.7437ZM72.1233 41.5329C72.0489 51.0941 70.3954 52.3518 66.925 52.3518C63.4586 52.3518 61.8037 51.0927 61.7307 41.5329H72.1233ZM66.8679 20C68.1209 19.9997 69.3618 20.2463 70.5195 20.7258C71.6772 21.2052 72.729 21.9082 73.6149 22.7944C74.5007 23.6807 75.2033 24.7328 75.6823 25.8907C76.1613 27.0486 76.4074 28.2895 76.4065 29.5426C76.4065 32.0725 75.4016 34.4988 73.6128 36.2879C71.824 38.0769 69.3978 39.0821 66.8679 39.0825C64.3374 39.0825 61.9105 38.0775 60.1207 36.2886C58.331 34.4996 57.325 32.0731 57.324 29.5426C57.324 28.2893 57.5709 27.0483 58.0505 25.8905C58.5301 24.7326 59.2332 23.6806 60.1194 22.7945C61.0057 21.9084 62.0578 21.2055 63.2157 20.726C64.3736 20.2465 65.6146 19.9998 66.8679 20Z" fill="#007AFF"/>
<path d="M23.48 27.1593C22.8624 27.1593 22.36 27.1273 22.2 28.4073L21.56 32.4409L25.4 35.6073H28.6C30.84 35.6073 31 34.0729 31 34.0729L27.96 30.5225C26.84 29.4025 25.72 29.2073 24.6 29.2073V28.4073C24.6 28.4073 24.7072 27.1593 23.48 27.1593ZM14.6 27.6073C14.6 27.6073 13.08 27.6393 12.12 27.9593C11.16 28.2793 10.2 29.4025 10.2 31.0025V37.2425C10.2 39.9609 9.08 40.4073 8.6 40.4073C8.6 40.4073 7 40.4409 7 42.0409V45.5609C7 45.5609 7 46.8409 8.28 46.8409H10.2V45.7225C10.2 45.0825 9.88 44.7625 9.4 44.6025V42.8425C11 42.8425 11.16 42.5209 11.8 42.3609L12.68 45.8761C12.84 46.3561 13 46.6761 13.48 46.8361H15.08L16.6 46.8073V45.5273C16.6 44.4441 15 44.4073 15 44.4073V40.4073H20.6L21.72 44.6009C22.36 46.8409 23.8 46.8073 23.8 46.8073H26.2V45.5273C26.2 44.3865 24.6 44.4073 24.6 44.4073L24.76 37.8825L19.8 34.0073H12.6V30.8073C12.6 30.1673 13.0416 30.0153 13.4 30.0073C14.1904 29.9881 14.6 30.0073 14.6 30.0073C14.9183 30.0073 15.2235 29.8808 15.4485 29.6558C15.6736 29.4307 15.8 29.1255 15.8 28.8073C15.8 28.489 15.6736 28.1838 15.4485 27.9587C15.2235 27.7337 14.9183 27.6073 14.6 27.6073ZM25.8 31.6073C25.9061 31.6073 26.0078 31.6494 26.0828 31.7244C26.1579 31.7994 26.2 31.9012 26.2 32.0073C26.2 32.1133 26.1579 32.2151 26.0828 32.2901C26.0078 32.3651 25.9061 32.4073 25.8 32.4073C25.6939 32.4073 25.5922 32.3651 25.5172 32.2901C25.4421 32.2151 25.4 32.1133 25.4 32.0073C25.4 31.9012 25.4421 31.7994 25.5172 31.7244C25.5922 31.6494 25.6939 31.6073 25.8 31.6073Z" fill="#007AFF"/>
<path d="M36.24 20.0796C35.9312 20.0796 35.68 20.0636 35.6 20.7036L35.28 22.7204L37.2 24.3036H38.8C39.92 24.3036 40 23.5364 40 23.5364L38.48 21.7612C37.92 21.2012 37.36 21.1036 36.8 21.1036V20.7036C36.8 20.7036 36.8536 20.0796 36.24 20.0796ZM31.8 20.3036C31.8 20.3036 31.04 20.3196 30.56 20.4796C30.08 20.6396 29.6 21.2012 29.6 22.0012V25.1212C29.6 26.4804 29.04 26.7036 28.8 26.7036C28.8 26.7036 28 26.7204 28 27.5204V29.2804C28 29.2804 28 29.9204 28.64 29.9204H29.6V29.3612C29.6 29.0412 29.44 28.8812 29.2 28.8012V27.9212C30 27.9212 30.08 27.7604 30.4 27.6804L30.84 29.438C30.92 29.678 31 29.838 31.24 29.918H32.04L32.8 29.9036V29.2636C32.8 28.722 32 28.7036 32 28.7036V26.7036H34.8L35.36 28.8004C35.68 29.9204 36.4 29.9036 36.4 29.9036H37.6V29.2636C37.6 28.6932 36.8 28.7036 36.8 28.7036L36.88 25.4412L34.4 23.5036H30.8V21.9036C30.8 21.5836 31.0208 21.5076 31.2 21.5036C31.5952 21.494 31.8 21.5036 31.8 21.5036C31.9591 21.5036 32.1117 21.4404 32.2243 21.3279C32.3368 21.2154 32.4 21.0628 32.4 20.9036C32.4 20.7445 32.3368 20.5919 32.2243 20.4794C32.1117 20.3668 31.9591 20.3036 31.8 20.3036ZM37.4 22.3036C37.453 22.3036 37.5039 22.3247 37.5414 22.3622C37.5789 22.3997 37.6 22.4506 37.6 22.5036C37.6 22.5567 37.5789 22.6075 37.5414 22.645C37.5039 22.6826 37.453 22.7036 37.4 22.7036C37.347 22.7036 37.2961 22.6826 37.2586 22.645C37.2211 22.6075 37.2 22.5567 37.2 22.5036C37.2 22.4506 37.2211 22.3997 37.2586 22.3622C37.2961 22.3247 37.347 22.3036 37.4 22.3036Z" fill="#007AFF"/>
</g>
<defs>
<clipPath id="clip0_201_9878">
<rect width="85" height="85" rx="12" fill="white"/>
</clipPath>
</defs>
</svg>
