<svg width="79" height="64" viewBox="0 0 79 64" fill="none" xmlns="http://www.w3.org/2000/svg">
<path d="M39.5001 8.0625C41.507 5.70139 43.8977 3.87153 46.672 2.57292C49.4463 1.27431 52.3682 0.625 55.4376 0.625C60.632 0.625 65.045 2.27778 68.6763 5.58333C72.3077 8.88889 74.3584 13.1389 74.8282 18.3333C74.8873 19.3368 74.5779 20.1785 73.9003 20.8585C73.2227 21.5385 72.3809 21.9069 71.3751 21.9635C70.3693 22.0202 69.5287 21.7109 68.8534 21.0356C68.1782 20.3603 67.8086 19.5186 67.7449 18.5104C67.3907 15.3229 66.0779 12.7257 63.8066 10.7188C61.5352 8.71181 58.7455 7.70833 55.4376 7.70833C53.0765 7.70833 50.8476 8.29861 48.7509 9.47917C46.6543 10.6597 45.0168 12.1944 43.8386 14.0833C43.3074 14.9097 42.6439 15.5295 41.8482 15.9427C41.0525 16.3559 40.2403 16.5625 39.4116 16.5625C38.5828 16.5625 37.7859 16.3559 37.0209 15.9427C36.2559 15.5295 35.6361 14.9097 35.1616 14.0833C33.981 12.1944 32.3424 10.6597 30.2457 9.47917C28.1491 8.29861 25.9213 7.70833 23.5626 7.70833C20.257 7.70833 17.4674 8.71181 15.1936 10.7188C12.9199 12.7257 11.6071 15.3229 11.2553 18.5104C11.1963 19.5139 10.8279 20.3556 10.1503 21.0356C9.47266 21.7156 8.63093 22.0249 7.62509 21.9635C6.61926 21.9022 5.77871 21.5338 5.10343 20.8585C4.42815 20.1833 4.11766 19.3415 4.17197 18.3333C4.64419 13.1389 6.696 8.88889 10.3274 5.58333C13.9588 2.27778 18.3705 0.625 23.5626 0.625C26.632 0.625 29.5539 1.27431 32.3282 2.57292C35.1025 3.87153 37.4932 5.70139 39.5001 8.0625ZM39.5001 63.224C38.6737 63.224 37.8473 63.0764 37.0209 62.7812C36.1945 62.4861 35.4567 62.0139 34.8074 61.3646C32.2692 59.1215 29.9234 56.9824 27.7701 54.9471C25.6168 52.9118 23.5945 50.9781 21.7032 49.1458C20.8768 48.3194 20.5085 47.4494 20.5982 46.5356C20.6879 45.6219 21.0563 44.8392 21.7032 44.1875C22.3502 43.5358 23.1329 43.1675 24.0513 43.0825C24.9698 42.9975 25.8399 43.3363 26.6616 44.099C28.4324 45.8108 30.3661 47.656 32.4628 49.6346C34.5595 51.6132 36.9052 53.7524 39.5001 56.0521C42.0973 53.75 44.4443 51.6108 46.5409 49.6346C48.6376 47.6583 50.5702 45.8131 52.3386 44.099C53.165 43.2726 54.0363 42.9326 54.9524 43.079C55.8685 43.2253 56.65 43.6244 57.297 44.276C57.9439 44.9277 58.2981 45.7246 58.3595 46.6667C58.4209 47.6087 58.0372 48.4942 57.2084 49.3229C55.3195 51.0938 53.2984 52.9826 51.1451 54.9896C48.9918 56.9965 46.6743 59.1215 44.1928 61.3646C43.5435 62.0139 42.8057 62.4861 41.9793 62.7812C41.1529 63.0764 40.3265 63.224 39.5001 63.224ZM36.1355 46.6667C36.9029 46.6667 37.5675 46.4459 38.1295 46.0044C38.6914 45.5628 39.0893 44.9867 39.323 44.276L44.1043 29.8438L47.2032 34.4479C47.4984 34.9201 47.9116 35.3038 48.4428 35.599C48.9741 35.8941 49.5348 36.0417 50.1251 36.0417H74.9168C75.9202 36.0417 76.762 35.7017 77.442 35.0217C78.122 34.3417 78.4608 33.5011 78.4584 32.5C78.4561 31.4989 78.1161 30.6583 77.4384 29.9783C76.7608 29.2983 75.9202 28.9583 74.9168 28.9583H52.1616L46.0522 19.9271C45.698 19.3958 45.2411 18.998 44.6816 18.7335C44.122 18.4691 43.5163 18.3357 42.8647 18.3333C42.0973 18.3333 41.4338 18.5553 40.8743 18.9992C40.3147 19.4431 39.9157 20.018 39.6772 20.724L34.8959 35.0677L31.8855 30.5521C31.5904 30.0799 31.1772 29.6962 30.6459 29.401C30.1147 29.1059 29.5539 28.9583 28.9636 28.9583H4.08343C3.07995 28.9583 2.2394 29.2983 1.56176 29.9783C0.884121 30.6583 0.544121 31.4989 0.54176 32.5C0.539399 33.5011 0.879399 34.3428 1.56176 35.0252C2.24412 35.7076 3.08468 36.0464 4.08343 36.0417H26.8386L32.948 45.0729C33.3022 45.6042 33.7602 46.0032 34.3222 46.27C34.8841 46.5368 35.4886 46.669 36.1355 46.6667Z" fill="#007AFF"/>
</svg>
