<svg width="69" height="65" viewBox="0 0 69 65" fill="none" xmlns="http://www.w3.org/2000/svg">
<path d="M48.0645 11.682C47.4775 11.682 46.9144 11.9152 46.4993 12.3303C46.0842 12.7454 45.851 13.3084 45.851 13.8955C45.851 14.4826 46.0842 15.0456 46.4993 15.4607C46.9144 15.8758 47.4775 16.1091 48.0645 16.1091C50.3135 16.1091 52.9131 18.2925 53.1911 21.3383C53.2444 21.923 53.5278 22.4626 53.9789 22.8384C54.4301 23.2142 55.012 23.3953 55.5968 23.342C56.1815 23.2887 56.7211 23.0053 57.0968 22.5542C57.4726 22.103 57.6538 21.5211 57.6005 20.9363C57.133 15.8363 52.8263 11.682 48.0645 11.682ZM29.6656 4.57031C25.5431 0.738223 20.5776 0.18041 16.2409 1.12958C11.9785 2.06104 8.14816 4.4676 5.84962 6.90249C3.01629 9.90052 0.354724 13.7432 0.129828 19.2948V19.309C0.0342035 22.0413 0.390141 26.0771 2.56649 29.0751L2.81087 29.4151C4.99785 32.4432 6.29056 34.2353 6.9316 36.0309L6.93691 36.0451C7.67004 38.0532 7.68952 40.0525 7.71608 42.8894L7.72316 43.6508C7.76212 47.5821 8.88306 53.8933 11.8917 58.501C13.3438 60.7287 15.336 62.7032 18.0011 63.6931L18.1038 63.7321L18.21 63.7586C20.3297 64.3182 22.3361 64.2013 23.9599 63.0007C25.4758 61.8798 26.2124 60.1284 26.6392 58.4993C27.0731 56.8329 27.282 54.8815 27.4467 52.9495C27.4939 52.3828 27.5394 51.8179 27.5831 51.2548C27.6964 49.8204 27.808 48.3825 27.9833 46.9304C28.1051 45.873 28.2723 44.8214 28.4844 43.7783C29.1042 40.8157 29.8161 39.0998 30.5014 38.0816C31.107 37.1784 31.718 36.7835 32.3962 36.5392C34.4061 36.0309 35.6793 36.293 36.5435 36.7835C37.4714 37.3095 38.2771 38.2923 38.9465 39.8205C40.3224 42.9655 40.7138 47.4085 41.0414 51.4212V51.4266C41.3778 55.418 42.2172 59.0606 43.7897 61.407C44.599 62.6147 45.7447 63.6896 47.3084 64.0668C48.9057 64.4528 50.4729 64.0012 51.8612 63.1105L51.863 63.1087C56.9452 59.8416 59.8795 52.8609 60.6817 43.966C61.0182 40.1977 61.4591 38.202 62.1515 36.4506C62.7129 35.034 63.4389 33.7554 64.5474 31.8075L64.551 31.804C64.8892 31.2072 65.2664 30.5467 65.6843 29.8011C66.8247 27.7753 68.6611 24.1203 68.8665 19.8544C69.079 15.4308 67.5224 10.554 62.2737 6.34468C57.2622 2.28416 52.6049 0.807286 48.4488 1.02864C44.3263 1.24822 41.0255 3.11999 38.6685 5.15114L38.6136 5.19895L38.5622 5.24854C36.2477 7.51874 35.1605 7.94906 34.4309 7.91718C33.6163 7.88176 32.3289 7.24781 29.7293 4.63228L29.6992 4.60041L29.6656 4.57031ZM9.06722 9.94302C10.7885 8.12083 13.8378 6.18708 17.1865 5.45395C20.4484 4.74031 23.8094 5.18833 26.6215 7.78437C29.129 10.3043 31.5161 12.2221 34.2379 12.3407C37.0375 12.4647 39.3556 10.6655 41.6081 8.4626C43.4586 6.88301 45.8403 5.60093 48.6843 5.44864C51.5176 5.29812 55.1337 6.25614 59.4899 9.78718L59.5006 9.79604C63.6142 13.0933 64.5899 16.5925 64.443 19.6419C64.2907 22.8471 62.8793 25.7583 61.8239 27.6283L61.8204 27.6354C61.4662 28.2717 61.1274 28.8709 60.8039 29.4328C59.6493 31.4586 58.7214 33.0896 58.0361 34.8215C57.1188 37.1377 56.6283 39.6133 56.2706 43.5694C55.5126 51.995 52.8174 57.2331 49.4706 59.3829C48.7622 59.838 48.4328 59.7831 48.3479 59.7636C48.2292 59.7353 47.9069 59.599 47.4677 58.9437C46.5416 57.5625 45.7731 54.8584 45.4525 51.0582L45.4384 50.8882C45.1302 47.1057 44.7088 41.9455 43.0017 38.0444C42.1145 36.0185 40.7846 34.099 38.7287 32.932C36.6214 31.7384 34.0873 31.5224 31.1956 32.2768L31.1159 32.298L31.0397 32.3246C29.4637 32.8611 28.0222 33.8333 26.8251 35.613C25.6865 37.3077 24.8241 39.6558 24.1512 42.8734C23.9113 44.041 23.7229 45.2186 23.5863 46.4027C23.4021 47.954 23.2782 49.53 23.1613 50.9962C23.12 51.5417 23.0781 52.0676 23.0356 52.5741C22.8709 54.5096 22.6849 56.1193 22.3556 57.3801C22.0156 58.6799 21.6189 59.2253 21.3285 59.4396C21.1514 59.5706 20.6981 59.8168 19.4443 59.5051C17.9745 58.9296 16.6907 57.7555 15.5981 56.0821C13.2021 52.4111 12.1839 47.019 12.1502 43.6048V43.6012L12.1432 42.7459C12.1255 40.0649 12.1042 37.2953 11.0984 34.5346C10.236 32.1262 8.57847 29.833 6.61993 27.1272L6.1542 26.4826L6.15066 26.4773C4.85795 24.6976 4.46837 21.9032 4.5516 19.4666C4.71806 15.4255 6.60045 12.555 9.06722 9.94302ZM32.3962 36.5392L32.313 36.5604L32.4688 36.5144L32.3962 36.5392Z" fill="#007AFF"/>
</svg>
