<svg width="65" height="65" viewBox="0 0 65 65" fill="none" xmlns="http://www.w3.org/2000/svg">
<path fill-rule="evenodd" clip-rule="evenodd" d="M59.0625 4.16667H5.9375C5.46785 4.16667 5.01743 4.35324 4.68533 4.68533C4.35324 5.01743 4.16667 5.46785 4.16667 5.9375V59.0625C4.16667 59.5322 4.35324 59.9826 4.68533 60.3147C5.01743 60.6468 5.46785 60.8333 5.9375 60.8333H59.0625C59.5322 60.8333 59.9826 60.6468 60.3147 60.3147C60.6468 59.9826 60.8333 59.5322 60.8333 59.0625V5.9375C60.8333 5.46785 60.6468 5.01743 60.3147 4.68533C59.9826 4.35324 59.5322 4.16667 59.0625 4.16667ZM5.9375 0.625C4.52854 0.625 3.17728 1.18471 2.181 2.181C1.18471 3.17728 0.625 4.52854 0.625 5.9375V59.0625C0.625 60.4715 1.18471 61.8227 2.181 62.819C3.17728 63.8153 4.52854 64.375 5.9375 64.375H59.0625C60.4715 64.375 61.8227 63.8153 62.819 62.819C63.8153 61.8227 64.375 60.4715 64.375 59.0625V5.9375C64.375 4.52854 63.8153 3.17728 62.819 2.181C61.8227 1.18471 60.4715 0.625 59.0625 0.625H5.9375Z" fill="#007AFF"/>
<path fill-rule="evenodd" clip-rule="evenodd" d="M26.2825 18.9178C23.373 19.4207 21.2534 21.8857 20.9063 24.8182L18.3333 46.6668H46.6666L44.0883 24.7881C43.7447 21.8698 41.6445 19.4101 38.751 18.9037C34.4124 18.144 30.7964 18.1369 26.2825 18.9178ZM28.4801 26.5643C28.5266 26.1042 28.3913 25.6442 28.1031 25.2826C27.8149 24.921 27.3967 24.6865 26.9379 24.6291C26.4791 24.5718 26.016 24.6962 25.6477 24.9757C25.2794 25.2553 25.035 25.6678 24.9668 26.1251L23.3642 38.9424C23.3294 39.1759 23.3416 39.414 23.4001 39.6427C23.4587 39.8714 23.5624 40.0861 23.7051 40.2741C23.8478 40.4622 24.0267 40.6198 24.2312 40.7377C24.4357 40.8556 24.6618 40.9315 24.896 40.9607C25.1303 40.99 25.368 40.9722 25.5953 40.9082C25.8225 40.8443 26.0347 40.7356 26.2193 40.5884C26.4039 40.4413 26.5573 40.2587 26.6703 40.0515C26.7833 39.8442 26.8538 39.6165 26.8775 39.3816L28.4801 26.5643Z" fill="#007AFF"/>
<path fill-rule="evenodd" clip-rule="evenodd" d="M29.7977 22.0115C30.5807 22.5674 31.1984 23.3252 31.5851 24.2042C31.9717 25.0832 32.1129 26.0506 31.9935 27.0035L30.3927 39.8207C30.2262 41.1489 29.5852 42.2999 28.6573 43.1251H42.6823L40.5715 25.2025C40.3908 23.6619 39.3248 22.5994 38.1419 22.3922C35.1828 21.8751 32.6346 21.7423 29.7977 22.0115ZM44.0883 24.7881C43.7448 21.8698 41.6446 19.4101 38.751 18.9037C34.4125 18.144 30.7965 18.1369 26.2826 18.9178C23.3731 19.4207 21.2534 21.8857 20.9064 24.8182L18.3333 46.6668H46.6667L44.0883 24.7881ZM28.4802 26.5643L26.8776 39.3816C26.8539 39.6165 26.7834 39.8442 26.6704 40.0515C26.5573 40.2587 26.404 40.4413 26.2194 40.5884C26.0348 40.7356 25.8226 40.8443 25.5953 40.9082C25.3681 40.9722 25.1303 40.99 24.8961 40.9607C24.6618 40.9315 24.4358 40.8556 24.2313 40.7377C24.0268 40.6198 23.8479 40.4622 23.7052 40.2741C23.5624 40.0861 23.4588 39.8714 23.4002 39.6427C23.3417 39.414 23.3295 39.1759 23.3643 38.9424L24.9669 26.1251C24.9906 25.8902 25.0611 25.6625 25.1741 25.4552C25.2871 25.248 25.4405 25.0654 25.6251 24.9183C25.8097 24.7711 26.0219 24.6624 26.2491 24.5985C26.4764 24.5345 26.7141 24.5167 26.9484 24.546C27.1826 24.5752 27.4087 24.6511 27.6132 24.769C27.8177 24.8869 27.9966 25.0445 28.1393 25.2326C28.282 25.4206 28.3857 25.6353 28.4443 25.864C28.5028 26.0927 28.515 26.3308 28.4802 26.5643ZM48.4375 53.7501H16.5625V50.2085H48.4375V53.7501Z" fill="#007AFF"/>
<path d="M13.0208 32.5002C13.0208 33.0963 13.0473 33.6866 13.1004 34.271H7.70825V30.7293H13.1004C13.0473 31.3137 13.0208 31.904 13.0208 32.5002ZM16.5837 21.266C15.9009 22.2324 15.3075 23.259 14.8111 24.3331L10.1449 21.6379L11.9158 18.5708L16.5837 21.266ZM24.3328 14.8095C23.2514 15.3125 22.2291 15.9039 21.2658 16.5839L18.5705 11.916L21.6376 10.1452L24.3328 14.8095ZM32.4999 13.021C31.9037 13.021 31.3135 13.0476 30.7291 13.1007V7.7085H34.2708V13.1007C33.682 13.0473 33.0911 13.0207 32.4999 13.021ZM43.7341 16.5839C42.7677 15.9011 41.7411 15.3078 40.667 14.8113L43.3622 10.1452L46.4293 11.916L43.7341 16.5839ZM50.1905 24.3331C49.6935 23.2589 49.0996 22.2323 48.4162 21.266L53.0841 18.5708L54.8549 21.6379L50.1905 24.3331ZM51.9791 32.5002C51.9791 31.904 51.9525 31.3137 51.8994 30.7293H57.2916V34.271H51.8994C51.9525 33.6866 51.9791 33.0963 51.9791 32.5002Z" fill="#007AFF"/>
</svg>
