<svg width="59" height="59" viewBox="0 0 59 59" fill="none" xmlns="http://www.w3.org/2000/svg">
<path d="M21.5312 58.5134C18.8843 58.5134 16.6165 57.602 14.7276 55.7793C12.8387 53.9565 11.8376 51.7288 11.7243 49.0961C8.77289 48.5767 6.32087 47.1718 4.36824 44.8816C2.4156 42.5866 1.43928 39.9114 1.43928 36.8561C1.43928 35.77 1.57858 34.6981 1.85719 33.6403C2.13581 32.5825 2.5549 31.5885 3.11449 30.6582C2.32824 29.6429 1.73914 28.5143 1.34719 27.2724C0.95525 26.0352 0.759277 24.7342 0.759277 23.3695C0.759277 20.1749 1.81469 17.4124 3.92553 15.082C6.03636 12.7515 8.65129 11.4187 11.7703 11.0834C11.7255 10.9016 11.703 10.7198 11.703 10.538V9.9253C11.7432 7.23363 12.7148 4.96461 14.6178 3.11822C16.5209 1.27183 18.8253 0.348633 21.5312 0.348633C23.2477 0.348633 24.7127 0.689813 25.9264 1.37217C27.1423 2.05217 28.3335 3.05329 29.4999 4.37551C30.6993 3.05329 31.887 2.05217 33.0628 1.37217C34.2387 0.692175 35.7073 0.350994 37.4687 0.348633C40.1107 0.348633 42.3845 1.28009 44.2899 3.14301C46.1953 5.00356 47.1681 7.25842 47.2082 9.90759V10.5203C47.2082 10.6997 47.1846 10.8804 47.1374 11.0622C50.2588 11.3998 52.8902 12.7256 55.0318 15.0395C57.1733 17.3534 58.2441 20.13 58.2441 23.3695C58.2441 24.7318 58.0363 26.0328 57.6207 27.2724C57.2052 28.512 56.6031 29.6406 55.8145 30.6582C56.3741 31.5838 56.805 32.5766 57.1072 33.6368C57.4094 34.6969 57.5605 35.77 57.5605 36.8561C57.5605 39.9728 56.5807 42.6739 54.6209 44.9595C52.6612 47.245 50.1832 48.6239 47.187 49.0961C47.0737 51.7288 46.0879 53.9565 44.2297 55.7793C42.3691 57.602 40.1155 58.5134 37.4687 58.5134C35.6742 58.5134 34.1973 58.177 33.038 57.5041C31.8787 56.8288 30.6993 55.8076 29.4999 54.4405C28.2887 55.81 27.0951 56.8311 25.9193 57.5041C24.7434 58.177 23.2807 58.5134 21.5312 58.5134ZM31.2707 10.0918V48.7774C31.2707 50.5128 31.8728 51.9802 33.077 53.1797C34.2812 54.3768 35.7545 54.9753 37.497 54.9753C39.1592 54.9753 40.5759 54.3897 41.747 53.2186C42.9228 52.0475 43.5627 50.645 43.6666 49.0111C41.9288 48.8553 40.3162 48.3559 38.8287 47.513C37.3412 46.6725 36.0933 45.532 35.0851 44.0918C34.7664 43.6738 34.6448 43.2347 34.7203 42.7743C34.7959 42.3138 35.0462 41.9408 35.4712 41.6551C35.8891 41.3363 36.3377 41.2147 36.817 41.2903C37.2939 41.3659 37.6812 41.6161 37.9787 42.0411C38.7956 43.2288 39.8345 44.1378 41.0953 44.7682C42.3562 45.3986 43.7126 45.7138 45.1647 45.7138C47.658 45.7138 49.7571 44.8615 51.4618 43.1568C53.1665 41.452 54.0189 39.353 54.0189 36.8597C54.0189 36.2623 53.948 35.6638 53.8064 35.064C53.6647 34.4643 53.4652 33.8823 53.2078 33.318C52.2043 34.0901 51.0687 34.6922 49.8007 35.1243C48.5328 35.5563 47.2141 35.7712 45.8447 35.7688C45.3441 35.7688 44.9239 35.5988 44.5839 35.2588C44.2439 34.9188 44.0739 34.4974 44.0739 33.9945C44.0739 33.4916 44.2439 33.0713 44.5839 32.7336C44.9239 32.396 45.3441 32.2272 45.8447 32.2272C48.338 32.2272 50.4371 31.3748 52.1418 29.6701C53.8465 27.9654 54.6989 25.8663 54.6989 23.373C54.6989 20.9505 53.8689 18.8963 52.2091 17.2105C50.5492 15.5247 48.5187 14.6275 46.1174 14.5188C45.5602 15.6286 44.8105 16.5919 43.8684 17.4088C42.924 18.2305 41.8556 18.8775 40.6632 19.3497C40.217 19.522 39.7755 19.5067 39.3387 19.3036C38.9018 19.1006 38.6102 18.77 38.4639 18.312C38.3033 17.8681 38.3127 17.4195 38.4922 16.9661C38.6716 16.5104 39.0069 16.2035 39.498 16.0453C40.7471 15.6132 41.7541 14.8553 42.5191 13.7715C43.2841 12.6831 43.6666 11.4447 43.6666 10.0563C43.6666 8.33981 43.0668 6.88301 41.8674 5.68592C40.668 4.48884 39.2005 3.8903 37.4651 3.8903C35.7297 3.8903 34.2634 4.49002 33.0664 5.68947C31.8693 6.88891 31.2707 8.3587 31.2707 10.0918ZM27.7291 48.7738V10.0918C27.7291 8.35634 27.1293 6.89009 25.9299 5.69301C24.7305 4.49356 23.263 3.89384 21.5276 3.89384C19.7922 3.89384 18.3259 4.49356 17.1289 5.69301C15.9318 6.89245 15.3332 8.35752 15.3332 10.0882C15.3332 11.4411 15.7122 12.6642 16.4701 13.7574C17.228 14.8482 18.2315 15.6097 19.4805 16.0418C19.9244 16.2 20.2632 16.4951 20.497 16.9272C20.7307 17.3593 20.7709 17.802 20.6174 18.2553C20.4356 18.711 20.1168 19.038 19.6612 19.2363C19.2102 19.4347 18.7391 19.4477 18.248 19.2753C17.0533 18.8031 15.9849 18.1691 15.0428 17.3734C14.1007 16.5777 13.3511 15.625 12.7939 14.5153C10.4493 14.6192 8.44705 15.5235 6.78719 17.2282C5.12969 18.9353 4.30095 20.9895 4.30095 23.3907C4.30095 25.8699 5.1533 27.9618 6.85803 29.6665C8.56275 31.3713 10.6606 32.2236 13.1516 32.2236C13.6545 32.2236 14.0759 32.3936 14.4159 32.7336C14.7559 33.0736 14.9259 33.4951 14.9259 33.998C14.9259 34.5009 14.7559 34.9212 14.4159 35.2588C14.0759 35.5965 13.6557 35.7653 13.1551 35.7653C11.7857 35.7653 10.467 35.5493 9.19907 35.1172C7.93115 34.6851 6.79546 34.0842 5.79199 33.3145C5.53699 33.8811 5.33747 34.4643 5.19344 35.064C5.04942 35.6638 4.97858 36.2611 4.98094 36.8561C4.98094 39.3495 5.8333 41.4485 7.53803 43.1532C9.24275 44.8579 11.3418 45.7103 13.8351 45.7103C15.3014 45.7103 16.6578 45.3915 17.9045 44.754C19.1512 44.1165 20.19 43.2111 21.0212 42.0376C21.3187 41.6126 21.7059 41.3623 22.1828 41.2868C22.6598 41.2112 23.1084 41.321 23.5287 41.6161C23.9489 41.9113 24.1968 42.2926 24.2724 42.7601C24.348 43.2276 24.2287 43.6703 23.9147 44.0882C22.8616 45.5285 21.5878 46.6736 20.0932 47.5236C18.5987 48.3713 16.9825 48.873 15.2447 49.0288C15.3486 50.6627 16.0026 52.0617 17.2068 53.2257C18.4109 54.3897 19.843 54.9718 21.5028 54.9718C23.2453 54.9718 24.7187 54.3732 25.9228 53.1761C27.127 51.9767 27.7291 50.5093 27.7291 48.7738Z" fill="#007AFF"/>
</svg>
