<svg width="69" height="56" viewBox="0 0 69 56" fill="none" xmlns="http://www.w3.org/2000/svg">
<path d="M27.4165 35.1249L47.2003 15.3447C46.3765 14.5212 45.7685 13.5072 45.4302 12.3926C45.0919 11.278 45.0337 10.0972 45.2607 8.95468C45.4877 7.8122 45.993 6.74334 46.7318 5.84277C47.4705 4.94221 48.42 4.23773 49.4961 3.79173C50.5721 3.34574 51.7416 3.172 52.9008 3.2859C54.06 3.3998 55.1733 3.79782 56.142 4.44472C57.1106 5.09161 57.9048 5.96741 58.4542 6.99454C59.0036 8.02167 59.2912 9.16844 59.2915 10.3333C60.4566 10.3324 61.604 10.619 62.6318 11.1676C63.6597 11.7162 64.5364 12.5099 65.1842 13.4784C65.832 14.4468 66.2309 15.5601 66.3455 16.7196C66.4602 17.879 66.287 19.0489 65.8415 20.1254C65.3959 21.202 64.6916 22.152 63.7911 22.8913C62.8906 23.6306 61.8216 24.1364 60.6789 24.3637C59.5362 24.5911 58.355 24.5331 57.2401 24.1948C56.1252 23.8566 55.1109 23.2485 54.2871 22.4245L41.5832 35.1249" stroke="#007AFF" stroke-width="5" stroke-linecap="round" stroke-linejoin="round"/>
<path d="M34.4999 28.0416L21.7995 15.3447C22.6233 14.5212 23.2313 13.5072 23.5696 12.3926C23.9079 11.278 23.9661 10.0972 23.7391 8.95468C23.512 7.8122 23.0068 6.74334 22.268 5.84277C21.5292 4.94221 20.5798 4.23773 19.5037 3.79173C18.4276 3.34574 17.2582 3.172 16.099 3.2859C14.9397 3.3998 13.8265 3.79782 12.8578 4.44472C11.8891 5.09161 11.0949 5.96741 10.5456 6.99454C9.99618 8.02167 9.70859 9.16844 9.70826 10.3333C8.54314 10.3324 7.39581 10.619 6.36793 11.1676C5.34005 11.7162 4.46338 12.5099 3.81559 13.4784C3.1678 14.4468 2.76891 15.5601 2.65425 16.7196C2.5396 17.879 2.71273 19.0489 3.1583 20.1254C3.60387 21.202 4.30812 22.152 5.20864 22.8913C6.10916 23.6306 7.17815 24.1364 8.32086 24.3637C9.46358 24.5911 10.6447 24.5331 11.7597 24.1948C12.8746 23.8566 13.8889 23.2485 14.7126 22.4245L27.4166 35.1249M2.62493 52.8333H66.3749C65.7551 46.9151 66.212 40.9864 59.2916 35.1249H9.70826C4.98604 38.6666 2.62493 44.5694 2.62493 52.8333Z" stroke="#007AFF" stroke-width="5" stroke-linecap="round" stroke-linejoin="round"/>
</svg>
