<svg width="62" height="69" viewBox="0 0 62 69" fill="none" xmlns="http://www.w3.org/2000/svg">
<path d="M0.0959473 68.1457V48.6665C0.0959473 46.2157 0.960113 44.1261 2.68845 42.3978C4.41678 40.6694 6.50518 39.8076 8.95366 39.8123H16.037C19.4866 39.8123 22.4144 38.6082 24.8203 36.1998C27.2263 33.7915 28.4305 30.8637 28.4328 27.4165C28.4328 25.9597 27.9122 24.7095 26.8709 23.6659C25.8273 22.6246 24.5759 22.104 23.1168 22.104C21.6246 22.104 20.3673 21.5916 19.3449 20.5669C18.3178 19.5446 17.8043 18.2861 17.8043 16.7915V0.854004H21.4168V16.7915C21.4168 17.2921 21.5762 17.7123 21.8949 18.0523C22.2113 18.3923 22.6198 18.5623 23.1203 18.5623C25.5712 18.5623 27.6596 19.4241 29.3855 21.1478C31.1115 22.8714 31.9733 24.961 31.9709 27.4165C31.9709 31.8176 30.4162 35.5741 27.3066 38.6861C24.197 41.798 20.4393 43.354 16.0334 43.354H8.95011C7.49331 43.354 6.2431 43.8746 5.19949 44.9159C4.15824 45.9595 3.63761 47.2097 3.63761 48.6665V68.1457H0.0959473ZM21.4168 16.7915C21.4168 17.2921 21.5762 17.7123 21.8949 18.0523C22.2113 18.3923 22.6198 18.5623 23.1203 18.5623C25.5712 18.5623 27.6596 19.4241 29.3855 21.1478C31.1115 22.8714 31.9733 24.961 31.9709 27.4165C31.9709 31.8176 30.4162 35.5741 27.3066 38.6861C24.197 41.798 20.4393 43.354 16.0334 43.354C20.4322 43.354 24.1887 41.798 27.303 38.6861C30.4173 35.5741 31.9733 31.8176 31.9709 27.4165C31.9709 24.9657 31.108 22.8761 29.382 21.1478C27.656 19.4194 25.5664 18.5576 23.1132 18.5623C22.6174 18.5623 22.2101 18.3923 21.8914 18.0523C21.5726 17.7123 21.4144 17.2921 21.4168 16.7915ZM56.8335 35.3392C56.2833 34.893 55.7249 34.4892 55.1582 34.128C54.5916 33.7667 53.9694 33.4185 53.2918 33.0832V30.9582C53.2918 25.6953 51.5882 21.1324 48.1812 17.2696C44.7717 13.4092 40.504 11.479 35.378 11.479C33.4773 11.479 31.8553 10.7966 30.5118 9.43192C29.1707 8.0672 28.5001 6.45692 28.5001 4.60109V0.854004H32.0418V4.60109L35.378 7.93734C41.5146 7.93734 46.624 10.2064 50.7064 14.7444C54.7887 19.2825 56.8311 24.6871 56.8335 30.9582V35.3392ZM10.7918 68.1457V62.8332C10.7918 60.3823 11.6536 58.2928 13.3772 56.5644C15.1008 54.8361 17.1904 53.9743 19.6459 53.979H25.4366C25.5263 54.6283 25.6408 55.2375 25.7801 55.8065C25.9194 56.3732 26.1048 56.9446 26.3362 57.5207H19.6459C18.1891 57.5207 16.9389 58.0413 15.8953 59.0826C14.8541 60.1262 14.3334 61.3764 14.3334 62.8332V68.1457H10.7918ZM44.4376 57.8607C46.4776 57.8607 48.2366 57.1216 49.7147 55.6436C51.1928 54.1655 51.9318 52.4065 51.9318 50.3665C51.9318 48.3265 51.1928 46.5687 49.7147 45.093C48.2366 43.6173 46.4776 42.8782 44.4376 42.8759C42.3976 42.8735 40.6386 43.6125 39.1605 45.093C37.6848 46.571 36.947 48.3301 36.947 50.3701C36.947 52.4101 37.686 54.1691 39.1641 55.6471C40.6421 57.1252 42.4 57.863 44.4376 57.8607ZM59.2099 68.0784L50.5895 59.5217C49.7088 60.1262 48.7573 60.5913 47.7349 60.9171C46.7125 61.243 45.6134 61.4047 44.4376 61.4023C41.3587 61.4023 38.7497 60.3328 36.6105 58.1936C34.4714 56.0544 33.403 53.4454 33.4053 50.3665C33.4077 47.2876 34.4761 44.6798 36.6105 42.543C38.745 40.4062 41.354 39.3366 44.4376 39.3342C47.5212 39.3319 50.1303 40.4014 52.2647 42.543C54.4015 44.6821 55.4699 47.2912 55.4699 50.3701C55.4699 51.6356 55.2586 52.8398 54.836 53.9825C54.4157 55.123 53.8348 56.1571 53.0935 57.0851L61.6501 65.6382L59.2099 68.0784Z" fill="#007AFF"/>
</svg>
