<svg width="65" height="66" viewBox="0 0 65 66" fill="none" xmlns="http://www.w3.org/2000/svg">
<path fill-rule="evenodd" clip-rule="evenodd" d="M19.4825 7.5147L19.5799 7.0897C19.7658 6.2999 20.0704 5.13824 20.6991 3.99428C21.3401 2.82907 22.3335 1.64792 23.8919 0.870529C25.4449 0.0966746 27.391 -0.191971 29.7976 0.126779C32.4539 0.480945 37.7894 1.35928 42.5033 3.75699C47.2439 6.16886 51.6851 10.3179 51.6851 17.2277C51.6851 20.7977 50.3039 24.628 48.9651 27.1249C48.3223 28.3255 47.5591 29.473 46.7941 30.091C46.6187 30.2327 46.3691 30.4098 46.0592 30.5338C45.2091 33.3274 43.517 35.7902 41.2141 37.5856C38.9112 39.3811 36.11 40.4214 33.1935 40.5644C30.2769 40.7074 27.3874 39.9462 24.9199 38.3847C22.4524 36.8232 20.5274 34.5377 19.4081 31.8406L19.3656 31.8477L18.737 31.0845L18.7352 31.0809L18.7317 31.0774L18.7228 31.065L18.6927 31.0296C18.5413 30.8409 18.3954 30.6478 18.2553 30.4505C17.8738 29.9196 17.5135 29.3737 17.1751 28.8143C16.3428 27.4366 15.3387 25.4745 14.6959 23.1848C14.0549 20.8951 13.7609 18.2105 14.4339 15.4409C15.0891 12.7457 16.635 10.093 19.4347 7.72365L19.4825 7.5147ZM22.4575 29.8945C23.2255 32.1031 24.7004 33.9969 26.6536 35.2826C28.6069 36.5682 30.9295 37.1739 33.2618 37.0059C35.5942 36.8379 37.806 35.9055 39.5549 34.3532C41.3037 32.8009 42.4919 30.7153 42.9354 28.4194L43.1355 28.4867C43.1277 28.3865 43.1242 28.2861 43.1249 28.1856C43.1249 25.2549 42.7176 23.2096 42.3386 21.9346C42.2643 21.6865 42.1822 21.4408 42.0925 21.1979L42.0199 21.2015H41.9491C40.6249 21.2299 39.3011 21.1291 37.9966 20.9004C34.956 20.3869 30.8389 19.1048 25.9903 16.1351C25.8841 16.3724 25.7778 16.6398 25.6716 16.9373C25.3245 17.9201 25.0394 19.0871 24.7932 20.3196C24.5754 21.4051 24.3966 22.4977 24.2266 23.5213L24.161 23.925C23.9786 25.0229 23.7962 26.1014 23.5837 26.8823C23.2119 28.2388 22.8329 29.2021 22.4575 29.8927M19.9783 26.5937C19.1793 25.2203 18.5513 23.7544 18.1083 22.2285C17.5788 20.3408 17.3841 18.2973 17.8763 16.2768C18.3545 14.3112 19.5108 12.2446 21.8891 10.286C22.3176 9.99563 22.5124 9.60605 22.5655 9.50157V9.4998C22.6577 9.30798 22.7323 9.10825 22.7886 8.90303C22.8453 8.70115 22.9073 8.4249 22.9657 8.17699L23.0277 7.89897C23.1959 7.18532 23.4137 6.40792 23.8033 5.69782C24.1823 5.01074 24.7011 4.42282 25.4732 4.03855C26.2488 3.65074 27.4495 3.38511 29.3301 3.63657C31.9031 3.97834 36.7428 4.79824 40.8972 6.91261C45.0232 9.01105 48.1434 12.1879 48.1434 17.2259C48.1434 19.5457 47.3643 22.1843 46.4257 24.265C46.2486 22.9085 45.9936 21.8 45.7316 20.9217C45.5469 20.2946 45.3191 19.681 45.0498 19.0853C44.9466 18.8653 44.8343 18.6497 44.7133 18.439L44.6832 18.3912L44.6726 18.3734L44.6673 18.3646L44.6637 18.3593L44.0085 17.3428L42.8362 17.5783L42.8115 17.5837L42.6397 17.6067C42.3762 17.6363 42.1115 17.654 41.8463 17.6598C40.7545 17.6808 39.6633 17.5954 38.588 17.4048C35.7317 16.9231 31.5348 15.6109 26.4366 12.2163L25.197 11.3893L24.1717 12.4695C23.327 13.3584 22.7532 14.5715 22.3335 15.7526C21.905 16.9656 21.5809 18.3203 21.3206 19.6201C21.1047 20.7262 20.9087 21.8361 20.7327 22.9493L20.6654 23.3459C20.4759 24.4988 20.3219 25.3789 20.166 25.9491C20.1023 26.184 20.0397 26.3989 19.9783 26.5937Z" fill="#007AFF"/>
<path fill-rule="evenodd" clip-rule="evenodd" d="M21.7227 42.0975C21.3473 41.3503 20.8851 40.4276 20.1042 40.6065C10.5346 42.7846 0.625 49.0729 0.625 55.7595V65.3751H64.375V55.7595C64.375 50.4931 58.2267 45.4728 50.9397 42.5137L50.9308 42.496L50.906 42.4482L50.8476 42.4765C48.9121 41.6973 46.8969 41.0598 44.8958 40.6065C44.0051 40.4029 43.0843 41.6283 42.6823 42.395H21.875L21.7227 42.0975ZM45.6095 44.435C46.3839 44.6499 47.1519 44.8901 47.9133 45.1558C47.9346 45.7614 47.8885 46.4768 47.7894 47.2064C47.6891 47.9619 47.528 48.7081 47.3077 49.4376H44.8958C44.5671 49.4378 44.2448 49.5295 43.9652 49.7025C43.6856 49.8754 43.4597 50.1228 43.3127 50.4169L41.5419 53.9586C41.4187 54.2043 41.3545 54.4753 41.3542 54.7501V58.2918C41.3542 58.7615 41.5407 59.2119 41.8728 59.544C42.2049 59.8761 42.6553 60.0626 43.125 60.0626H46.6667V56.521H44.8958V55.1681L45.9902 52.9793H50.8848L51.9792 55.1681V56.521H50.2083V60.0626H53.75C54.2197 60.0626 54.6701 59.8761 55.0022 59.544C55.3343 59.2119 55.5208 58.7615 55.5208 58.2918V54.7501C55.5205 54.4753 55.4563 54.2043 55.3331 53.9586L53.5623 50.4169C53.4153 50.1228 53.1894 49.8754 52.9098 49.7025C52.6302 49.5295 52.3079 49.4378 51.9792 49.4376H50.9769C51.1934 48.5 51.3402 47.5477 51.416 46.5884C53.1426 47.4047 54.747 48.3415 56.1371 49.3544C59.5406 51.8371 60.8333 54.1605 60.8333 55.7595V61.8335H4.16667V55.7595C4.16667 54.1605 5.45938 51.8371 8.86292 49.3544C10.5735 48.106 12.6153 46.9762 14.8041 46.0412C14.8652 47.4523 15.0916 48.8514 15.4787 50.2097L15.4929 50.2593C14.4342 50.9291 13.6463 51.9514 13.2683 53.1457C12.8903 54.34 12.9464 55.6295 13.4269 56.7865C13.9074 57.9434 14.7813 58.8933 15.8942 59.4684C17.0071 60.0435 18.2875 60.2069 19.5091 59.9296C20.7308 59.6522 21.8151 58.9521 22.5707 57.9529C23.3262 56.9536 23.7043 55.7195 23.6382 54.4686C23.5721 53.2176 23.0661 52.0302 22.2095 51.1161C21.3528 50.202 20.2007 49.6201 18.9567 49.4731L18.8788 49.2181C18.6915 48.5585 18.5525 47.8861 18.4626 47.2064C18.3633 46.5199 18.3219 45.8262 18.3386 45.1328C18.3445 44.984 18.3534 44.8518 18.3652 44.7361C18.5777 44.67 18.7902 44.6068 19.0027 44.5466L19.7376 45.9385H44.8197L45.6095 44.435ZM18.3333 56.5493C19.286 56.5493 20.1042 55.7701 20.1042 54.7519C20.1042 53.7355 19.286 52.9545 18.3333 52.9545C17.3806 52.9545 16.5625 53.7337 16.5625 54.7519C16.5625 55.7684 17.3806 56.5493 18.3333 56.5493Z" fill="#007AFF"/>
</svg>
