<svg width="36" height="36" viewBox="0 0 36 36" fill="none" xmlns="http://www.w3.org/2000/svg">
<path d="M25.5 15.75V10.5C25.5 9.675 24.825 9 24 9H6C5.175 9 4.5 9.675 4.5 10.5V25.5C4.5 26.325 5.175 27 6 27H24C24.825 27 25.5 26.325 25.5 25.5V20.25L28.935 23.685C29.88 24.63 31.5 23.955 31.5 22.62V13.365C31.5 12.03 29.88 11.355 28.935 12.3L25.5 15.75ZM19.5 19.5H16.5V22.5C16.5 23.325 15.825 24 15 24C14.175 24 13.5 23.325 13.5 22.5V19.5H10.5C9.675 19.5 9 18.825 9 18C9 17.175 9.675 16.5 10.5 16.5H13.5V13.5C13.5 12.675 14.175 12 15 12C15.825 12 16.5 12.675 16.5 13.5V16.5H19.5C20.325 16.5 21 17.175 21 18C21 18.825 20.325 19.5 19.5 19.5Z" fill="#407BFF"/>
</svg>
